<mxfile host="app.diagrams.net" modified="2022-04-25T02:20:59.867Z" agent="5.0 (Macintosh; Intel Mac OS X 10_15_7) AppleWebKit/537.36 (KHTML, like Gecko) Chrome/100.0.4896.75 Safari/537.36" etag="VaB2dKoY8iKP4-weGOGB" version="17.4.6" type="github">
  <diagram id="6a731a19-8d31-9384-78a2-239565b7b9f0" name="Page-1">
    <mxGraphModel dx="1186" dy="795" grid="1" gridSize="10" guides="1" tooltips="1" connect="1" arrows="1" fold="1" page="1" pageScale="1" pageWidth="1169" pageHeight="827" background="none" math="0" shadow="0">
      <root>
        <mxCell id="0" />
        <mxCell id="1" parent="0" />
        <mxCell id="GsqEaRnPZe5fFwHVZHBa-1791" value="" style="edgeStyle=none;rounded=0;orthogonalLoop=1;jettySize=auto;html=1;" edge="1" parent="1" source="GsqEaRnPZe5fFwHVZHBa-1788" target="GsqEaRnPZe5fFwHVZHBa-1790">
          <mxGeometry relative="1" as="geometry" />
        </mxCell>
        <mxCell id="GsqEaRnPZe5fFwHVZHBa-1799" value="" style="edgeStyle=none;rounded=0;orthogonalLoop=1;jettySize=auto;html=1;dashed=1;" edge="1" parent="1" source="GsqEaRnPZe5fFwHVZHBa-1788" target="GsqEaRnPZe5fFwHVZHBa-1800">
          <mxGeometry relative="1" as="geometry">
            <mxPoint x="240" y="440" as="targetPoint" />
          </mxGeometry>
        </mxCell>
        <mxCell id="GsqEaRnPZe5fFwHVZHBa-1827" style="edgeStyle=none;rounded=0;orthogonalLoop=1;jettySize=auto;html=1;exitX=0.75;exitY=0;exitDx=0;exitDy=0;dashed=1;startArrow=none;startFill=0;endArrow=classic;endFill=1;" edge="1" parent="1" source="GsqEaRnPZe5fFwHVZHBa-1829" target="GsqEaRnPZe5fFwHVZHBa-1824">
          <mxGeometry relative="1" as="geometry" />
        </mxCell>
        <mxCell id="GsqEaRnPZe5fFwHVZHBa-1788" value="package" style="rounded=1;whiteSpace=wrap;html=1;fillColor=#dae8fc;strokeColor=#6c8ebf;" vertex="1" parent="1">
          <mxGeometry x="180" y="300" width="120" height="60" as="geometry" />
        </mxCell>
        <mxCell id="GsqEaRnPZe5fFwHVZHBa-1793" value="" style="edgeStyle=none;rounded=0;orthogonalLoop=1;jettySize=auto;html=1;" edge="1" parent="1" source="GsqEaRnPZe5fFwHVZHBa-1790" target="GsqEaRnPZe5fFwHVZHBa-1792">
          <mxGeometry relative="1" as="geometry" />
        </mxCell>
        <mxCell id="GsqEaRnPZe5fFwHVZHBa-1802" value="" style="edgeStyle=none;rounded=0;orthogonalLoop=1;jettySize=auto;html=1;dashed=1;" edge="1" parent="1" source="GsqEaRnPZe5fFwHVZHBa-1790" target="GsqEaRnPZe5fFwHVZHBa-1801">
          <mxGeometry relative="1" as="geometry" />
        </mxCell>
        <mxCell id="GsqEaRnPZe5fFwHVZHBa-1825" style="edgeStyle=none;rounded=0;orthogonalLoop=1;jettySize=auto;html=1;entryX=0.5;entryY=1;entryDx=0;entryDy=0;dashed=1;startArrow=none;startFill=0;endArrow=classic;endFill=1;" edge="1" parent="1" source="GsqEaRnPZe5fFwHVZHBa-1790" target="GsqEaRnPZe5fFwHVZHBa-1824">
          <mxGeometry relative="1" as="geometry" />
        </mxCell>
        <mxCell id="GsqEaRnPZe5fFwHVZHBa-1790" value="deployment" style="whiteSpace=wrap;html=1;rounded=1;fillColor=#d5e8d4;strokeColor=#82b366;" vertex="1" parent="1">
          <mxGeometry x="380" y="295" width="120" height="70" as="geometry" />
        </mxCell>
        <mxCell id="GsqEaRnPZe5fFwHVZHBa-1795" value="" style="edgeStyle=none;rounded=0;orthogonalLoop=1;jettySize=auto;html=1;" edge="1" parent="1" source="GsqEaRnPZe5fFwHVZHBa-1792" target="GsqEaRnPZe5fFwHVZHBa-1794">
          <mxGeometry relative="1" as="geometry" />
        </mxCell>
        <mxCell id="GsqEaRnPZe5fFwHVZHBa-1804" value="" style="edgeStyle=none;rounded=0;orthogonalLoop=1;jettySize=auto;html=1;dashed=1;" edge="1" parent="1" source="GsqEaRnPZe5fFwHVZHBa-1792" target="GsqEaRnPZe5fFwHVZHBa-1803">
          <mxGeometry relative="1" as="geometry" />
        </mxCell>
        <mxCell id="GsqEaRnPZe5fFwHVZHBa-1792" value="generate scene" style="whiteSpace=wrap;html=1;rounded=1;fillColor=#f5f5f5;fontColor=#333333;strokeColor=#666666;" vertex="1" parent="1">
          <mxGeometry x="580" y="300" width="120" height="60" as="geometry" />
        </mxCell>
        <mxCell id="GsqEaRnPZe5fFwHVZHBa-1797" value="" style="edgeStyle=none;rounded=0;orthogonalLoop=1;jettySize=auto;html=1;" edge="1" parent="1" source="GsqEaRnPZe5fFwHVZHBa-1794" target="GsqEaRnPZe5fFwHVZHBa-1796">
          <mxGeometry relative="1" as="geometry" />
        </mxCell>
        <mxCell id="GsqEaRnPZe5fFwHVZHBa-1806" value="" style="edgeStyle=none;rounded=0;orthogonalLoop=1;jettySize=auto;html=1;dashed=1;" edge="1" parent="1" source="GsqEaRnPZe5fFwHVZHBa-1794" target="GsqEaRnPZe5fFwHVZHBa-1805">
          <mxGeometry relative="1" as="geometry" />
        </mxCell>
        <mxCell id="GsqEaRnPZe5fFwHVZHBa-1831" style="edgeStyle=none;rounded=0;orthogonalLoop=1;jettySize=auto;html=1;exitX=0;exitY=0;exitDx=0;exitDy=0;entryX=1;entryY=1;entryDx=0;entryDy=0;dashed=1;startArrow=none;startFill=0;endArrow=classic;endFill=1;" edge="1" parent="1" source="GsqEaRnPZe5fFwHVZHBa-1794" target="GsqEaRnPZe5fFwHVZHBa-1824">
          <mxGeometry relative="1" as="geometry" />
        </mxCell>
        <mxCell id="GsqEaRnPZe5fFwHVZHBa-1794" value="run test" style="whiteSpace=wrap;html=1;rounded=1;fillColor=#e1d5e7;strokeColor=#9673a6;" vertex="1" parent="1">
          <mxGeometry x="790" y="300" width="110" height="60" as="geometry" />
        </mxCell>
        <mxCell id="GsqEaRnPZe5fFwHVZHBa-1812" value="" style="edgeStyle=none;rounded=0;orthogonalLoop=1;jettySize=auto;html=1;startArrow=none;startFill=0;endArrow=classic;endFill=1;dashed=1;" edge="1" parent="1" source="GsqEaRnPZe5fFwHVZHBa-1796" target="GsqEaRnPZe5fFwHVZHBa-1811">
          <mxGeometry relative="1" as="geometry" />
        </mxCell>
        <mxCell id="GsqEaRnPZe5fFwHVZHBa-1796" value="metric collection&lt;br&gt;&amp;amp;&amp;amp; publisher" style="whiteSpace=wrap;html=1;rounded=1;fillColor=#1ba1e2;fontColor=#ffffff;strokeColor=#006EAF;" vertex="1" parent="1">
          <mxGeometry x="980" y="300" width="120" height="60" as="geometry" />
        </mxCell>
        <mxCell id="GsqEaRnPZe5fFwHVZHBa-1807" style="edgeStyle=none;rounded=0;orthogonalLoop=1;jettySize=auto;html=1;entryX=0.5;entryY=1;entryDx=0;entryDy=0;startArrow=none;startFill=0;endArrow=diamond;endFill=1;" edge="1" parent="1" source="GsqEaRnPZe5fFwHVZHBa-1800" target="GsqEaRnPZe5fFwHVZHBa-1790">
          <mxGeometry relative="1" as="geometry" />
        </mxCell>
        <mxCell id="GsqEaRnPZe5fFwHVZHBa-1800" value="release" style="shape=document;whiteSpace=wrap;html=1;boundedLbl=1;fillColor=#fff2cc;strokeColor=#d6b656;" vertex="1" parent="1">
          <mxGeometry x="180" y="430" width="120" height="80" as="geometry" />
        </mxCell>
        <mxCell id="GsqEaRnPZe5fFwHVZHBa-1808" style="edgeStyle=none;rounded=0;orthogonalLoop=1;jettySize=auto;html=1;exitX=1;exitY=0.25;exitDx=0;exitDy=0;entryX=0.5;entryY=1;entryDx=0;entryDy=0;startArrow=none;startFill=0;endArrow=diamond;endFill=1;" edge="1" parent="1" source="GsqEaRnPZe5fFwHVZHBa-1801" target="GsqEaRnPZe5fFwHVZHBa-1792">
          <mxGeometry relative="1" as="geometry" />
        </mxCell>
        <mxCell id="GsqEaRnPZe5fFwHVZHBa-1801" value="user,password,&lt;br&gt;endpoint file" style="shape=document;whiteSpace=wrap;html=1;boundedLbl=1;rounded=1;fillColor=#fff2cc;strokeColor=#d6b656;" vertex="1" parent="1">
          <mxGeometry x="380" y="430" width="120" height="80" as="geometry" />
        </mxCell>
        <mxCell id="GsqEaRnPZe5fFwHVZHBa-1809" style="edgeStyle=none;rounded=0;orthogonalLoop=1;jettySize=auto;html=1;exitX=1;exitY=0.25;exitDx=0;exitDy=0;entryX=0.5;entryY=1;entryDx=0;entryDy=0;startArrow=none;startFill=0;endArrow=diamond;endFill=1;" edge="1" parent="1" source="GsqEaRnPZe5fFwHVZHBa-1803" target="GsqEaRnPZe5fFwHVZHBa-1794">
          <mxGeometry relative="1" as="geometry" />
        </mxCell>
        <mxCell id="GsqEaRnPZe5fFwHVZHBa-1803" value="yaml" style="shape=document;whiteSpace=wrap;html=1;boundedLbl=1;rounded=1;fillColor=#fff2cc;strokeColor=#d6b656;" vertex="1" parent="1">
          <mxGeometry x="580" y="430" width="120" height="80" as="geometry" />
        </mxCell>
        <mxCell id="GsqEaRnPZe5fFwHVZHBa-1810" style="edgeStyle=none;rounded=0;orthogonalLoop=1;jettySize=auto;html=1;exitX=1;exitY=0.25;exitDx=0;exitDy=0;entryX=0.5;entryY=1;entryDx=0;entryDy=0;startArrow=none;startFill=0;endArrow=diamond;endFill=1;" edge="1" parent="1" source="GsqEaRnPZe5fFwHVZHBa-1805" target="GsqEaRnPZe5fFwHVZHBa-1796">
          <mxGeometry relative="1" as="geometry" />
        </mxCell>
        <mxCell id="GsqEaRnPZe5fFwHVZHBa-1805" value="results log" style="shape=document;whiteSpace=wrap;html=1;boundedLbl=1;rounded=1;fillColor=#fff2cc;strokeColor=#d6b656;" vertex="1" parent="1">
          <mxGeometry x="780" y="430" width="120" height="80" as="geometry" />
        </mxCell>
        <mxCell id="GsqEaRnPZe5fFwHVZHBa-1815" style="edgeStyle=none;rounded=0;orthogonalLoop=1;jettySize=auto;html=1;exitX=1;exitY=0.25;exitDx=0;exitDy=0;entryX=0.5;entryY=1;entryDx=0;entryDy=0;entryPerimeter=0;startArrow=none;startFill=0;endArrow=diamond;endFill=1;" edge="1" parent="1" source="GsqEaRnPZe5fFwHVZHBa-1811" target="GsqEaRnPZe5fFwHVZHBa-1813">
          <mxGeometry relative="1" as="geometry" />
        </mxCell>
        <mxCell id="GsqEaRnPZe5fFwHVZHBa-1811" value="csv" style="shape=document;whiteSpace=wrap;html=1;boundedLbl=1;rounded=1;fillColor=#fff2cc;strokeColor=#d6b656;" vertex="1" parent="1">
          <mxGeometry x="980" y="430" width="120" height="80" as="geometry" />
        </mxCell>
        <mxCell id="GsqEaRnPZe5fFwHVZHBa-1817" value="" style="edgeStyle=none;rounded=0;orthogonalLoop=1;jettySize=auto;html=1;startArrow=none;startFill=0;endArrow=diamond;endFill=1;" edge="1" parent="1" source="GsqEaRnPZe5fFwHVZHBa-1813" target="GsqEaRnPZe5fFwHVZHBa-1816">
          <mxGeometry relative="1" as="geometry" />
        </mxCell>
        <mxCell id="GsqEaRnPZe5fFwHVZHBa-1813" value="mogdb" style="shape=cylinder3;whiteSpace=wrap;html=1;boundedLbl=1;backgroundOutline=1;size=15;fillColor=#ffe6cc;strokeColor=#d79b00;" vertex="1" parent="1">
          <mxGeometry x="1169" y="290" width="111" height="80" as="geometry" />
        </mxCell>
        <mxCell id="GsqEaRnPZe5fFwHVZHBa-1816" value="zeppelin" style="ellipse;whiteSpace=wrap;html=1;fillColor=#1ba1e2;fontColor=#ffffff;strokeColor=#006EAF;" vertex="1" parent="1">
          <mxGeometry x="1164.5" y="150" width="120" height="80" as="geometry" />
        </mxCell>
        <mxCell id="GsqEaRnPZe5fFwHVZHBa-1819" value="" style="edgeStyle=none;rounded=0;orthogonalLoop=1;jettySize=auto;html=1;startArrow=none;startFill=0;endArrow=diamond;endFill=1;" edge="1" parent="1" source="GsqEaRnPZe5fFwHVZHBa-1818" target="GsqEaRnPZe5fFwHVZHBa-1816">
          <mxGeometry relative="1" as="geometry" />
        </mxCell>
        <mxCell id="GsqEaRnPZe5fFwHVZHBa-1818" value="Actor" style="shape=umlActor;verticalLabelPosition=bottom;verticalAlign=top;html=1;outlineConnect=0;gradientColor=none;" vertex="1" parent="1">
          <mxGeometry x="1080" y="160" width="30" height="60" as="geometry" />
        </mxCell>
        <mxCell id="GsqEaRnPZe5fFwHVZHBa-1820" value="" style="shape=curlyBracket;whiteSpace=wrap;html=1;rounded=1;gradientColor=none;rotation=90;" vertex="1" parent="1">
          <mxGeometry x="630" y="-140" width="20" height="800" as="geometry" />
        </mxCell>
        <mxCell id="GsqEaRnPZe5fFwHVZHBa-1821" value="jenkins pipeline" style="text;html=1;strokeColor=none;fillColor=none;align=center;verticalAlign=middle;whiteSpace=wrap;rounded=0;" vertex="1" parent="1">
          <mxGeometry x="560" y="210" width="160" height="30" as="geometry" />
        </mxCell>
        <mxCell id="GsqEaRnPZe5fFwHVZHBa-1822" value="pipeline step" style="text;html=1;strokeColor=none;fillColor=none;align=center;verticalAlign=middle;whiteSpace=wrap;rounded=0;" vertex="1" parent="1">
          <mxGeometry x="80" y="310" width="60" height="30" as="geometry" />
        </mxCell>
        <mxCell id="GsqEaRnPZe5fFwHVZHBa-1823" value="middle files" style="text;html=1;strokeColor=none;fillColor=none;align=center;verticalAlign=middle;whiteSpace=wrap;rounded=0;" vertex="1" parent="1">
          <mxGeometry x="80" y="455" width="60" height="30" as="geometry" />
        </mxCell>
        <mxCell id="GsqEaRnPZe5fFwHVZHBa-1824" value="resource management" style="ellipse;whiteSpace=wrap;html=1;fillColor=#1ba1e2;fontColor=#ffffff;strokeColor=#006EAF;" vertex="1" parent="1">
          <mxGeometry x="380" y="150" width="120" height="80" as="geometry" />
        </mxCell>
        <mxCell id="GsqEaRnPZe5fFwHVZHBa-1826" value="find runtime host by env" style="text;html=1;strokeColor=none;fillColor=none;align=center;verticalAlign=middle;whiteSpace=wrap;rounded=0;" vertex="1" parent="1">
          <mxGeometry x="395" y="265" width="90" height="30" as="geometry" />
        </mxCell>
        <mxCell id="GsqEaRnPZe5fFwHVZHBa-1829" value="find devhost by env" style="text;html=1;strokeColor=none;fillColor=none;align=center;verticalAlign=middle;whiteSpace=wrap;rounded=0;" vertex="1" parent="1">
          <mxGeometry x="260" y="265" width="80" height="30" as="geometry" />
        </mxCell>
        <mxCell id="GsqEaRnPZe5fFwHVZHBa-1830" value="" style="edgeStyle=none;rounded=0;orthogonalLoop=1;jettySize=auto;html=1;exitX=0.75;exitY=0;exitDx=0;exitDy=0;dashed=1;startArrow=none;startFill=0;endArrow=none;endFill=1;" edge="1" parent="1" source="GsqEaRnPZe5fFwHVZHBa-1788" target="GsqEaRnPZe5fFwHVZHBa-1829">
          <mxGeometry relative="1" as="geometry">
            <mxPoint x="270" y="300" as="sourcePoint" />
            <mxPoint x="396.9451585023046" y="217.8590150867442" as="targetPoint" />
          </mxGeometry>
        </mxCell>
        <mxCell id="GsqEaRnPZe5fFwHVZHBa-1832" value="find client host" style="text;html=1;strokeColor=none;fillColor=none;align=center;verticalAlign=middle;whiteSpace=wrap;rounded=0;" vertex="1" parent="1">
          <mxGeometry x="700" y="270" width="90" height="30" as="geometry" />
        </mxCell>
      </root>
    </mxGraphModel>
  </diagram>
</mxfile>
